<svg xmlns="http://www.w3.org/2000/svg" viewBox="0 0 200 200" width="200" height="200">
  <path d="M105.00,124.25 L106.00,125.25 L106.00,129.50 L107.00,130.25 L107.00,135.50 L108.00,136.25 L108.00,140.50 L109.00,141.25 L109.00,145.50 L110.00,146.25 L110.00,150.50 L112.00,156.25 L112.00,161.50 L113.00,162.25 L117.00,186.50 L119.00,191.50 L121.25,193.75 L125.25,195.75 L135.50,195.75 L148.50,189.75 L148.75,186.25 L146.25,185.00 L141.50,189.00 L136.25,190.00 L134.75,188.50 L134.75,181.25 L139.25,173.75 L156.25,167.75 L159.00,168.25 L165.00,187.50 L167.25,189.75 L173.50,189.75 L174.25,188.75 L183.50,187.75 L184.25,186.75 L186.50,186.75 L188.75,184.50 L188.75,180.25 L187.75,179.50 L173.75,135.25 L171.75,132.50 L168.75,121.25 L167.50,120.00 L149.25,119.00 L148.50,118.00 L141.00,118.25 L155.00,157.50 L139.50,163.00 L136.25,163.00 L132.50,158.00 L129.25,158.00 L124.50,160.00 L121.75,159.50 L121.75,154.25 L120.75,153.50 L120.75,147.25 L119.75,146.50 L116.75,123.25 Z M127.25,64.00 L125.00,66.25 L125.00,67.50 L121.00,71.25 L121.00,72.50 L118.00,75.25 L118.00,76.50 L116.00,78.25 L116.00,81.50 L122.00,87.25 L122.00,90.50 L118.50,94.00 L117.25,94.00 L115.50,96.00 L114.25,96.00 L110.00,100.25 L110.00,101.50 L107.00,104.25 L107.00,105.50 L105.00,107.25 L105.00,108.50 L104.00,109.25 L104.00,116.50 L105.00,117.25 L105.00,118.50 L116.50,118.75 L117.75,117.50 L117.75,116.25 L118.75,115.50 L118.75,113.25 L120.25,111.75 L130.50,111.75 L131.25,112.75 L138.50,112.75 L139.25,113.75 L146.50,113.75 L147.25,114.75 L154.50,114.75 L155.25,115.75 L164.50,115.75 L165.25,116.75 L169.50,116.75 L170.25,115.75 L171.50,115.75 L175.75,111.50 L175.75,110.25 L176.75,109.50 L176.75,99.25 L175.75,98.50 L175.75,96.25 L174.75,95.50 L174.75,93.25 L172.75,91.50 L172.75,90.25 L168.50,86.00 L165.25,86.00 L164.50,85.00 L160.25,85.00 L158.50,83.00 L157.25,83.00 L155.50,81.00 L154.25,81.00 L152.50,79.00 L151.25,79.00 L149.50,77.00 L148.25,77.00 L146.50,75.00 L145.25,75.00 L142.50,72.00 L141.25,72.00 L139.50,70.00 L138.25,70.00 L136.50,68.00 L135.25,68.00 L133.50,66.00 L132.25,66.00 L130.50,64.00 Z M28.25,30.00 L27.00,31.25 L27.00,32.50 L26.00,33.25 L26.00,34.50 L25.00,35.25 L25.00,36.50 L23.00,38.25 L23.00,39.50 L22.00,40.25 L22.00,41.50 L21.00,42.25 L21.00,43.50 L20.00,44.25 L20.00,45.50 L19.00,46.25 L19.00,47.50 L18.00,48.25 L18.00,49.50 L17.00,50.25 L17.00,51.50 L16.00,52.25 L16.00,54.50 L15.00,55.25 L15.00,56.50 L14.00,57.25 L14.00,58.50 L13.00,59.25 L13.00,61.50 L12.00,62.25 L12.00,64.50 L11.00,65.25 L11.00,68.50 L10.00,69.25 L10.00,72.50 L11.00,73.25 L11.00,76.50 L12.00,77.25 L12.00,78.50 L13.00,79.25 L13.00,80.50 L14.00,81.25 L14.00,82.50 L16.25,84.75 L17.50,84.75 L19.25,86.75 L20.50,86.75 L21.25,87.75 L22.50,87.75 L23.25,88.75 L27.50,88.75 L28.25,89.75 L30.50,89.75 L31.25,88.75 L34.50,88.75 L35.25,87.75 L37.50,87.75 L39.25,85.75 L40.50,85.75 L44.75,81.50 L44.75,80.25 L45.75,79.50 L45.75,78.25 L46.75,77.50 L46.75,75.25 L47.75,74.50 L47.75,67.25 L46.75,66.50 L46.75,64.25 L45.75,63.50 L45.75,61.25 L44.75,60.50 L44.75,58.25 L43.75,57.50 L43.75,56.25 L42.75,55.50 L42.75,54.25 L41.75,53.50 L41.75,52.25 L40.75,51.50 L40.75,50.25 L39.75,49.50 L39.75,48.25 L38.75,47.50 L38.75,46.25 L37.75,45.50 L37.75,44.25 L36.75,43.50 L36.75,42.25 L35.75,41.50 L35.75,40.25 L34.75,39.50 L34.75,38.25 L33.75,37.50 L33.75,36.25 L32.75,35.50 L32.75,34.25 L31.75,33.50 L31.75,32.25 L29.50,30.00 Z M30.00,4.25 L30.00,5.50 L29.00,6.25 L29.00,10.50 L28.00,11.25 L28.00,15.50 L27.00,16.25 L27.00,18.50 L28.25,19.75 L29.50,19.75 L30.25,20.75 L31.50,20.75 L34.25,22.75 L36.50,22.75 L37.25,23.75 L38.50,23.75 L39.25,24.75 L40.50,24.75 L41.25,25.75 L42.50,25.75 L43.25,26.75 L44.50,26.75 L45.25,27.75 L46.50,27.75 L47.25,28.75 L48.50,28.75 L49.25,29.75 L50.50,29.75 L51.25,30.75 L52.50,30.75 L53.25,31.75 L54.50,31.75 L55.25,32.75 L56.50,32.75 L57.25,33.75 L58.50,33.75 L59.25,34.75 L60.50,34.75 L63.25,36.75 L65.50,36.75 L66.25,37.75 L67.50,37.75 L68.25,38.75 L69.50,38.75 L70.25,39.75 L73.50,40.75 L80.25,47.75 L81.50,47.75 L88.25,54.75 L89.50,54.75 L95.25,60.75 L96.50,60.75 L103.25,67.75 L104.50,67.75 L111.25,74.75 L112.50,74.75 L113.50,75.75 L113.75,74.25 L116.75,71.50 L116.75,70.25 L119.75,67.50 L119.75,66.25 L122.75,63.50 L122.75,62.25 L120.50,60.00 L119.25,60.00 L113.50,54.00 L112.25,54.00 L106.50,48.00 L105.25,48.00 L99.50,42.00 L98.25,42.00 L92.50,36.00 L91.25,36.00 L85.50,30.00 L84.25,30.00 L82.50,28.00 L81.25,28.00 L80.50,27.00 L79.25,27.00 L78.50,26.00 L77.25,26.00 L76.50,25.00 L75.25,25.00 L74.50,24.00 L73.25,24.00 L72.50,23.00 L71.25,23.00 L70.50,22.00 L69.25,22.00 L68.50,21.00 L67.25,21.00 L66.50,20.00 L65.25,20.00 L62.50,18.00 L60.25,18.00 L59.50,17.00 L58.25,17.00 L57.50,16.00 L56.25,16.00 L55.50,15.00 L54.25,15.00 L53.50,14.00 L52.25,14.00 L51.50,13.00 L50.25,13.00 L49.50,12.00 L48.25,12.00 L47.50,11.00 L46.25,11.00 L43.50,9.00 L41.25,9.00 L40.50,8.00 L39.25,8.00 L38.50,7.00 L37.25,7.00 L36.50,6.00 L35.25,6.00 L32.50,4.00 Z" fill="currentColor" fill-rule="evenodd"/>
</svg>
